<svg xmlns="http://www.w3.org/2000/svg" width="612" height="612" style="enable-background:new 0 0 612 612" xml:space="preserve"><path d="m584.995 221.946-18.903-2.701-23.297-2.023-6.409-15.865 15.188-17.888 11.141-15.195c4.155-5.66 6.078-11.81 6.078-18.903 0-1.008 0-1.685-.339-2.701-.338-8.102-3.701-14.503-9.116-19.912l-73.923-73.929c-5.415-5.408-11.788-9.448-19.918-9.448h-3.039c-7.087 0-13.279 1.865-18.565 5.74l-15.188 11.14-17.896 15.188-16.203-6.078-2.023-23.627-2.7-18.565C387.73 12.387 373.341.174 358.154.174H253.848c-15.195 0-29.914 12.213-32.067 27.005l-2.701 18.565-2.031 23.627-15.865 6.078-17.888-15.188-15.188-11.14c-5.062-3.716-11.141-5.74-17.896-5.74h-3.039c-8.124 0-14.85 3.709-20.589 9.448l-73.922 73.929c-5.062 5.062-8.102 11.81-8.778 19.912-.339 1.354-.339 2.701-.339 3.716 0 6.417 1.527 12.603 5.401 17.888l11.14 15.195 15.865 17.888c-2.362 4.386-4.386 9.456-6.755 15.865l-23.627 2.023-18.565 2.701C12.545 224.049 0 238.826 0 254.014v104.312c0 15.188 12.451 29.612 27.005 31.729l18.565 2.7 23.627 2.023a279.803 279.803 0 0 0 6.755 16.203l-15.865 17.888-11.14 15.195c-3.716 5.062-5.401 10.802-5.401 17.211 0 1.016 0 2.362.339 3.716.677 8.102 3.363 15.181 8.778 20.589l73.922 73.93c5.574 5.573 12.465 9.109 20.589 9.109h3.039c6.755 0 12.833-2.023 17.896-5.732l15.188-11.141 17.888-15.864c6.078 3.031 11.479 5.401 15.865 7.086l2.031 23.289 2.701 18.903c2.066 14.468 16.873 26.667 32.067 26.667h104.305c15.188 0 29.662-12.199 31.729-26.667l2.7-18.903 2.023-23.289a168.163 168.163 0 0 0 16.203-7.086l17.896 15.864 15.188 11.141c5.286 3.874 11.479 5.401 18.227 5.401h3.378c8.13 0 14.849-3.716 19.918-8.778l73.923-73.93c5.739-5.739 8.778-12.487 9.116-20.589.339-1.015.339-1.685.339-2.7 0-7.086-2.247-12.998-6.078-18.227l-11.141-15.195-15.188-17.888 6.409-16.203 23.297-2.023 18.903-2.7c14.798-2.117 27.004-16.542 27.004-31.73V254.014c0-15.188-12.206-29.951-27.005-32.068zm-6.417 135.702-17.218 2.7-8.433.677-35.107 2.701c-1.354 7.086-3.65 13.718-6.077 19.573-.317 1.022-1.944 5.437-5.74 13.841-.929 2.066-3.716 8.102-8.778 17.896l21.942 27.005 5.401 6.07 10.464 14.519-72.575 72.575-13.842-10.464-6.747-5.401-27.005-22.958c-6.755 4.394-12.812 7.461-17.889 9.794-3.024 1.383-12.156 4.725-13.841 5.739l-19.581 6.071-2.7 34.43-.677 9.117-2.7 17.218h-102.95l-2.701-17.218-1.016-9.117-2.7-34.43-19.242-6.071-13.841-5.739c-5.164-2.146-11.141-5.4-17.888-9.794l-27.005 22.958-6.416 5.401-14.511 10.464-72.576-72.575 10.464-14.519 5.401-6.07 22.951-27.005c-4.386-6.755-7.756-12.689-9.787-17.896l-5.401-13.841-6.078-19.573-34.768-2.701-8.778-.677-17.55-2.7V254.69l17.55-3.039 8.778-.67 34.768-2.7 6.078-19.242 5.401-13.841c2.031-5.207 5.401-11.141 9.787-17.888l-22.951-27.005-5.401-7.093-10.464-13.841 72.576-72.575 14.511 10.471 6.416 5.401 27.005 22.274 7.424-4.047c4.378-2.391 8.116-4.018 10.464-5.062 6.769-3.01 11.5-4.667 13.841-5.401 6.193-2.42 12.487-4.731 19.242-6.078l2.7-35.445 1.016-8.102 2.701-17.55h102.951l2.7 17.55.677 8.102 2.7 35.445c7.087 1.347 13.669 3.767 19.581 6.078 4.695 1.455 9.384 3.168 13.841 5.401l10.125 5.062 7.764 4.047 27.005-22.274 6.747-5.401 13.842-10.471 72.575 72.575-10.464 13.841-5.401 7.093-21.942 27.005c5.062 9.787 7.799 15.843 8.778 17.888 2.737 5.718 4.58 10.168 5.74 13.841 2.542 6.143 4.724 12.487 6.077 19.242l35.107 2.7 8.433.67 17.218 3.039v102.958z"/><path d="M306.166 201.357c-29.029 0-53.586 10.212-73.922 30.721-20.171 20.336-30.382 44.893-30.382 73.583 0 29.029 10.125 53.672 30.382 73.93 20.25 20.25 44.893 30.375 73.922 30.375 28.697 0 53.333-10.125 73.929-30.375 20.589-20.258 30.714-44.9 30.714-73.93 0-28.69-10.125-52.994-30.714-73.583-20.596-20.596-45.232-30.721-73.929-30.721zm49.963 155.276c-13.841 13.841-30.722 20.935-49.963 20.935-19.912 0-36.958-6.921-50.972-20.935-14.006-14.007-20.927-31.053-20.927-50.972 0-19.242 7.086-36.114 20.927-49.956 14.18-14.179 31.06-21.266 50.972-21.266 19.241 0 35.949 7.252 49.963 21.266 14.006 14.007 21.266 30.714 21.266 49.956 0 19.919-7.094 36.8-21.266 50.972z"/></svg>